<?xml version="1.0" encoding="UTF-8" standalone="no"?>
<!-- Created with Inkscape (http://www.inkscape.org/) -->

<svg
   xmlns:dc="http://purl.org/dc/elements/1.1/"
   xmlns:cc="http://creativecommons.org/ns#"
   xmlns:rdf="http://www.w3.org/1999/02/22-rdf-syntax-ns#"
   xmlns:svg="http://www.w3.org/2000/svg"
   xmlns="http://www.w3.org/2000/svg"
   xmlns:sodipodi="http://sodipodi.sourceforge.net/DTD/sodipodi-0.dtd"
   xmlns:inkscape="http://www.inkscape.org/namespaces/inkscape"
   width="640"
   height="480"
   id="svg2"
   version="1.1"
   inkscape:version="0.48.4 r9939"
   sodipodi:docname="drawing-1.svg">
  <defs
     id="defs4" />
  <sodipodi:namedview
     id="base"
     pagecolor="#ffffff"
     bordercolor="#666666"
     borderopacity="1.0"
     inkscape:pageopacity="0.0"
     inkscape:pageshadow="2"
     inkscape:zoom="2.8"
     inkscape:cx="455.87328"
     inkscape:cy="-234.36731"
     inkscape:document-units="px"
     inkscape:current-layer="layer1"
     showgrid="false"
     inkscape:window-width="1024"
     inkscape:window-height="746"
     inkscape:window-x="0"
     inkscape:window-y="0"
     inkscape:window-maximized="1" />
  <metadata
     id="metadata7">
    <rdf:RDF>
      <cc:Work
         rdf:about="">
        <dc:format>image/svg+xml</dc:format>
        <dc:type
           rdf:resource="http://purl.org/dc/dcmitype/StillImage" />
        <dc:title></dc:title>
      </cc:Work>
    </rdf:RDF>
  </metadata>
  <g
     inkscape:label="Layer 1"
     inkscape:groupmode="layer"
     id="layer1"
     transform="translate(0,-572.36217)">
    <rect
       style="fill:#4d4d4d;fill-opacity:1;stroke:none"
       id="rect3029"
       width="89.90358"
       height="146.47212"
       x="57.847195"
       y="836.53931" />
    <rect
       style="fill:#4d4d4d;fill-opacity:1;stroke:none"
       id="rect3031"
       width="78.791901"
       height="78.791901"
       x="435.81662"
       y="1268.0178"
       inkscape:export-filename="/home/turupawn/Projects/GDX/Semana8/android/assets/enemigo.png"
       inkscape:export-xdpi="90"
       inkscape:export-ydpi="90" />
    <rect
       y="1441.271"
       x="794.99005"
       height="146.47212"
       width="89.90358"
       id="rect3033"
       style="fill:#4d4d4d;fill-opacity:1;stroke:none" />
    <rect
       y="1230.2903"
       x="70.979179"
       height="146.47212"
       width="89.90358"
       id="rect3035"
       style="fill:#4d4d4d;fill-opacity:1;stroke:none"
       inkscape:export-filename="/home/turupawn/Projects/GDX/Semana8/android/assets/1.png"
       inkscape:export-xdpi="90"
       inkscape:export-ydpi="90" />
    <path
       style="fill:#000000;stroke:none"
       id="path3043"
       d="m 113.63239,1247.1772 c -0.40648,-0.037 -0.95887,-0.1007 -1.41327,-0.1346 -1.10952,-0.017 -2.22403,0.1708 -3.30154,0.4257 -1.29273,0.3166 -2.4994,0.8833 -3.67773,1.4885 -0.99183,0.4864 -1.92303,1.0839 -2.6201,1.9501 -0.62881,0.849 -0.9354,1.8671 -1.22026,2.8699 -0.37315,1.2448 -0.43024,2.5289 -0.26014,3.81 0.27664,1.7008 1.24822,3.1495 2.16455,4.5697 1.27221,1.9557 2.90807,3.6074 4.72098,5.0588 1.45442,1.1089 3.07421,1.9753 4.82307,2.5083 1.42003,0.334 2.87131,0.2125 4.28306,-0.089 1.17496,-0.4076 2.22156,-1.0847 3.11843,-1.9373 0.92233,-0.9189 1.54777,-2.0302 2.05939,-3.2131 0.51852,-1.2673 0.81686,-2.6067 1.07427,-3.9469 0.17627,-1.0801 0.19983,-2.1758 0.0576,-3.2598 -0.12651,-0.7957 -0.58338,-1.3337 -1.1579,-1.8523 -1.01687,-0.8493 -2.27765,-1.3134 -3.49521,-1.7934 -1.37027,-0.5581 -2.81013,-0.9013 -4.25386,-1.2047 -0.31203,-0.06 -2.47452,-0.5001 -2.6263,-0.2446 0.0129,0.015 0.0256,0.021 0.0383,0.032 -3.55461,1.5666 -5.76991,-3.4605 -2.21532,-5.0269 l 0,0 c 0.30612,-0.119 0.61224,-0.2376 0.91835,-0.3565 0.3238,-0.062 0.64421,-0.1472 0.97143,-0.1892 1.3545,-0.1738 2.71505,0.1361 4.04053,0.3682 1.75485,0.3616 3.49788,0.7944 5.16484,1.463 1.90633,0.7545 3.80892,1.5793 5.32775,2.9998 1.52509,1.5477 2.40804,2.9549 2.75896,5.1285 0.19802,1.6592 0.19763,3.3314 -0.0971,4.9819 -0.33685,1.7475 -0.74139,3.4889 -1.43676,5.1342 -0.83466,1.8724 -1.87687,3.6268 -3.37425,5.0543 -1.6679,1.5115 -3.56266,2.7214 -5.76243,3.3002 -2.35104,0.468 -4.74276,0.6074 -7.08137,-0.044 -2.39237,-0.7807 -4.64576,-1.8996 -6.64076,-3.4507 -2.28795,-1.8435 -4.36713,-3.9242 -5.945428,-6.4227 -1.350069,-2.1606 -2.634599,-4.3955 -2.952887,-6.9718 -0.189592,-2.0032 -0.13282,-4.0025 0.466354,-5.9421 0.518663,-1.7717 1.16829,-3.5107 2.359905,-4.9534 1.210835,-1.3535 2.611966,-2.4717 4.263986,-3.252 1.59217,-0.8182 3.2336,-1.5532 4.98486,-1.9613 1.64262,-0.3612 3.32818,-0.6351 5.01519,-0.5117 0.99237,0.099 2.00578,0.1954 2.94221,0.5614 3.57317,1.4292 1.55188,6.4824 -2.02129,5.0531 z"
       inkscape:connector-curvature="0" />
    <path
       style="fill:#000000;fill-opacity:1;stroke:none"
       id="path3045"
       d="m 113.87994,1276.7446 c 0.0212,-0.037 0.0576,-0.1524 0.0636,-0.1104 0.0129,0.086 -0.44042,1.5743 -0.48209,1.7476 -0.32437,1.6193 -0.51126,3.2588 -0.64798,4.903 -0.20192,2.4883 -0.29792,4.9831 -0.3826,7.4775 -0.0918,2.798 -0.13655,5.5973 -0.16313,8.3967 -0.0301,3.2385 -0.0529,6.4773 -0.0674,9.716 -0.0129,3.0304 -0.0305,6.0609 -0.055,9.0913 -0.003,0.4053 -0.007,0.8108 -0.01,1.2161 -0.01,3.9557 -5.60469,3.941 -5.59423,-0.015 l 0,0 c -0.001,-0.4056 -0.003,-0.8114 -0.004,-1.2171 -0.007,-3.0351 -0.007,-6.0702 0.01,-9.1053 0.0195,-3.2536 0.0355,-6.5074 0.0847,-9.7609 0.048,-2.8397 0.097,-5.6796 0.19133,-8.5183 0.0936,-2.5999 0.20207,-5.2006 0.43075,-7.7927 0.19279,-1.929 0.42605,-3.8571 0.87221,-5.7467 0.24295,-0.9206 0.49967,-1.8433 0.88848,-2.7148 1.72028,-3.4405 6.58592,-1.0079 4.86565,2.4328 z"
       inkscape:connector-curvature="0" />
    <path
       style="fill:#000000;fill-opacity:1;stroke:none"
       id="path3047"
       d="m 110.79948,1320.5046 c 1.00991,-0.2171 2.0357,-0.4237 3.05572,-0.6243 3.17308,-0.6878 6.33912,-1.4088 9.49299,-2.1811 3.96501,-0.9346 7.92368,-1.8955 11.89588,-2.7992 2.28129,-0.453 4.62607,-1.2039 6.98108,-0.8638 0.44036,0.064 0.8673,0.1992 1.30096,0.2988 2.9289,1.1839 3.95103,3.245 4.9209,6.0699 0.73974,2.383 1.05607,4.8626 1.41208,7.3233 0.30344,1.9599 0.6329,3.9156 0.94814,5.8737 0.26004,1.5935 0.44503,3.1974 0.60028,4.804 0.38911,3.8856 -5.10599,4.4359 -5.49509,0.5503 l 0,0 c -0.15462,-1.4879 -0.33126,-2.9741 -0.58083,-4.4494 -0.33693,-1.9869 -0.67705,-3.9732 -0.99514,-5.9633 -0.32173,-2.1366 -0.58137,-4.2931 -1.17769,-6.3761 -0.27169,-0.8528 -0.52806,-1.7264 -1.03819,-2.4737 -1.49557,-0.6148 -4.07068,0.5074 -5.58501,0.7241 -3.95083,0.951 -7.89431,1.9327 -11.85428,2.8456 -3.26099,0.7646 -6.53914,1.4575 -9.83031,2.0784 -1.05231,0.1765 -2.10739,0.3503 -3.15645,0.5332 -3.7974,0.6328 -4.69246,-4.7375 -0.89504,-5.3704 z"
       inkscape:connector-curvature="0" />
    <path
       style="fill:#000000;fill-opacity:1;stroke:none"
       id="path3049"
       d="m 112.39908,1324.0348 c 0.0228,0.7997 0.0278,1.5999 0.0346,2.3998 0.0143,1.5968 0.0159,3.1934 0.0188,4.7902 0.003,1.6175 -0.004,3.235 -0.0114,4.8524 -0.004,1.2582 0.0191,2.5147 -0.0951,3.7683 -0.10411,1.3068 -0.5005,2.5438 -1.02118,3.7377 -0.51586,1.1343 -1.21789,2.1643 -1.91616,3.1908 -0.47119,0.6477 -0.81573,1.3592 -1.09379,2.1061 -0.43334,1.2865 -1.10614,2.4296 -1.97253,3.4658 -1.25768,1.3267 -2.88471,1.9392 -4.63641,2.2882 -1.842092,0.3269 -3.681467,0.034 -5.491816,-0.3266 -2.037391,-0.4153 -3.960808,-1.1935 -5.827857,-2.0885 -2.16364,-1.0289 -4.040795,-2.4875 -5.752322,-4.1446 -1.4757,-1.5347 -2.667336,-3.3002 -3.782066,-5.1045 -2.074481,-3.3511 2.66472,-6.285 4.739202,-2.9337 l 0,0 c 0.881319,1.42 1.823276,2.8049 2.942594,4.0513 1.26335,1.2535 2.658059,2.3506 4.271574,3.1256 1.446262,0.7057 2.932567,1.3246 4.512728,1.6645 1.106503,0.2304 2.230986,0.4846 3.366773,0.3371 0.55232,-0.093 1.09937,-0.1674 1.55325,-0.5272 0.52585,-0.3716 0.66212,-1.2032 0.93681,-1.7451 0.43796,-1.1528 0.97306,-2.2616 1.6895,-3.2707 0.51537,-0.7521 1.04162,-1.5016 1.43571,-2.3272 0.2984,-0.645 0.53113,-1.3062 0.57263,-2.0238 0.11305,-1.0769 0.0217,-2.1628 0.044,-3.2435 -0.007,-1.6174 -0.0144,-3.2349 -0.0114,-4.8524 0.003,-1.5968 0.004,-3.1934 0.0188,-4.7902 0.007,-0.7999 0.0114,-1.6001 0.0346,-2.3998 0,-3.8476 5.44144,-3.8476 5.44144,0 z"
       inkscape:connector-curvature="0" />
    <path
       style="fill:#000000;fill-opacity:1;stroke:none"
       id="path3053"
       d="m 107.3425,1295.8534 c -1.0459,-0.2638 -2.09023,-0.5236 -3.15109,-0.7226 -1.77352,-0.28 -3.56847,-0.4011 -5.358549,-0.5221 -1.951193,-0.1075 -3.851372,0.4145 -5.707862,0.9489 -2.139197,0.5903 -4.182525,1.4522 -6.171746,2.425 -1.151604,0.6207 -2.257353,1.3314 -3.133757,2.3113 -2.597587,2.901 -6.700236,-0.7726 -4.10265,-3.6736 l 0,0 c 1.353026,-1.5102 2.965821,-2.714 4.773177,-3.6402 2.288023,-1.1332 4.64171,-2.135 7.110368,-2.8093 2.480951,-0.6921 5.014025,-1.2881 7.611347,-1.1169 2.021662,0.139 4.049142,0.283 6.044352,0.6531 0.71167,0.1446 1.41511,0.2993 2.11519,0.493 0.28831,0.081 0.59526,0.1189 0.85882,0.2605 0.0344,0.019 -0.0782,3e-4 -0.11721,4e-4 3.81302,0.5448 3.04267,5.9371 -0.77034,5.3925 z"
       inkscape:connector-curvature="0" />
    <path
       style="fill:#000000;fill-opacity:1;stroke:none"
       id="path3055"
       d="m 113.20084,1293.9561 c 0.60774,0.4296 1.12922,0.9621 1.68756,1.45 0.81178,0.6942 1.75483,1.1622 2.73767,1.558 1.25357,0.4914 2.56937,0.7457 3.90713,0.8435 2.06999,0.023 4.12511,-0.2674 6.14482,-0.6978 1.46265,-0.3675 2.84689,-0.9584 4.19522,-1.6229 3.51807,-1.7472 5.9888,3.2282 2.47072,4.9754 l 0,0 c -1.76383,0.8809 -3.58114,1.6521 -5.50611,2.1112 -2.56022,0.542 -5.16707,0.9197 -7.79197,0.7652 -1.89189,-0.1857 -3.75768,-0.5457 -5.52826,-1.2617 -1.56192,-0.6541 -3.05342,-1.4468 -4.31601,-2.5946 -0.42261,-0.3908 -0.82283,-0.8044 -1.26563,-1.1731 -3.07813,-2.3085 0.18672,-6.6617 3.26486,-4.3532 z"
       inkscape:connector-curvature="0" />
    <rect
       style="fill:#4d4d4d;fill-opacity:1;stroke:none"
       id="rect3917"
       width="89.90358"
       height="146.47212"
       x="189.6721"
       y="1230.2903"
       inkscape:export-filename="/home/turupawn/Projects/GDX/Semana8/android/assets/2.png"
       inkscape:export-xdpi="90"
       inkscape:export-ydpi="90" />
    <path
       style="fill:#000000;fill-opacity:1;stroke:none"
       id="path3941"
       d="m 232.17678,1248.4857 c -0.39214,0.2451 -0.0888,0.1297 0.17807,0.087 0.50862,0.028 1.03339,0.024 1.54736,0.032 0.76976,0.01 1.53602,0.099 2.29821,0.2009 0.8223,0.05 1.59745,0.2603 2.36607,0.5419 0.76333,0.2996 1.52738,0.6182 2.16682,1.1396 0.59753,0.4705 1.04542,1.0842 1.42339,1.7366 0.36357,0.6321 0.57379,1.3299 0.7619,2.0296 0.1965,0.7194 0.25752,1.4424 0.20108,2.1825 -0.22446,0.8669 -0.49277,1.719 -0.8722,2.5308 -0.49411,0.9896 -1.03047,1.957 -1.57753,2.9181 -0.54414,0.9793 -1.23062,1.8667 -1.91573,2.7494 -0.7303,0.9693 -1.56498,1.8386 -2.4535,2.6616 -0.84287,0.7805 -1.79568,1.4215 -2.83664,1.9034 -1.31805,0.5887 -2.73143,0.8929 -4.14567,1.1427 -1.57211,0.2838 -3.16796,0.2816 -4.75005,0.1067 -1.37091,-0.1698 -2.7101,-0.5221 -3.96851,-1.0914 -0.72731,-0.3466 -1.15035,-0.9924 -1.55048,-1.6601 -0.39623,-0.7023 -0.69548,-1.4559 -0.84617,-2.2481 -0.0302,-0.6344 0.11083,-1.2399 0.34717,-1.8231 0.40481,-0.9556 0.98699,-1.8198 1.58064,-2.6658 0.66582,-0.9436 1.46696,-1.7753 2.34328,-2.5229 0.89764,-0.8061 1.91852,-1.443 2.95746,-2.0469 0.94496,-0.5026 1.86176,-1.0657 2.86242,-1.4528 0.85863,-0.3339 1.76042,-0.5207 2.66531,-0.6758 0.49245,-0.053 0.2577,-0.037 0.70388,-0.054 3.85835,-0.1792 3.60486,-5.6358 -0.25349,-5.4565 l 0,0 c -0.9313,0.047 -0.46703,0.01 -1.39279,0.1198 -1.2817,0.2274 -2.55602,0.5093 -3.771,0.9879 -1.22954,0.5073 -2.401,1.1268 -3.56212,1.7742 -1.34736,0.7745 -2.6583,1.6156 -3.82235,2.6525 -1.19979,1.0587 -2.32376,2.2024 -3.232,3.5273 -0.86801,1.2451 -1.69211,2.5324 -2.23771,3.9568 -0.53297,1.5623 -0.8261,3.1705 -0.53611,4.8203 0.31319,1.3929 0.78329,2.7399 1.51605,3.9732 0.99919,1.6114 2.22934,3.0126 3.98444,3.8277 1.7891,0.7904 3.66065,1.3545 5.61207,1.5693 2.11618,0.2278 4.25071,0.233 6.3504,-0.1655 1.91013,-0.3609 3.81384,-0.8056 5.58041,-1.6425 1.50343,-0.7641 2.91609,-1.6838 4.15814,-2.8331 1.09409,-1.0278 2.1235,-2.1168 3.03094,-3.3155 0.84852,-1.0898 1.67132,-2.2023 2.34722,-3.41 0.62945,-1.1087 1.24523,-2.2263 1.80978,-3.3696 0.63645,-1.4382 1.16749,-2.9355 1.34187,-4.5078 0.0511,-1.3119 -0.049,-2.6095 -0.40331,-3.8798 -0.317,-1.1772 -0.70603,-2.3367 -1.32167,-3.3964 -0.75009,-1.254 -1.64195,-2.4132 -2.81518,-3.3047 -1.11664,-0.827 -2.32992,-1.4824 -3.64621,-1.9392 -1.13228,-0.396 -2.28596,-0.7014 -3.48618,-0.7977 -0.97476,-0.1276 -1.95502,-0.2278 -2.93928,-0.2289 -0.85445,-0.01 -1.71373,-0.04 -2.5632,0.072 -0.77423,0.144 -1.55278,0.3258 -2.21518,0.7744 -3.16064,2.1071 -0.18076,6.5769 2.97988,4.4698 z"
       inkscape:connector-curvature="0" />
    <path
       style="fill:#000000;fill-opacity:1;stroke:none"
       id="path3943"
       d="m 233.7562,706.13129 c 0.0304,0.58737 0.0319,1.17593 0.0388,1.76394 0.0336,1.11044 -0.026,2.22382 0.0601,3.33188 0.12876,1.57336 0.3002,3.14257 0.44628,4.71431 0.24905,2.81138 0.33919,5.6334 0.42582,8.45343 0.10252,3.70466 0.13528,7.41072 0.17398,11.11645 0.0189,3.40416 0.0585,6.80893 3.7e-4,10.21285 -0.005,1.28953 -0.13629,2.56641 -0.30908,3.84178 -0.48896,3.90713 -6.01449,3.21563 -5.52553,-0.6915 l 0,0 c 0.11763,-1.06307 0.18538,-2.12826 0.17832,-3.19901 -0.001,-3.37037 -0.0786,-6.74038 -0.0917,-10.11076 -0.0299,-3.6781 -0.077,-7.35603 -0.13265,-11.03384 -0.0455,-2.70734 -0.0845,-5.41663 -0.25166,-8.11977 -0.12372,-1.62054 -0.28082,-3.23833 -0.40164,-4.85913 -0.0583,-1.21828 -0.033,-2.43726 -0.0197,-3.65669 0.007,-0.58801 0.008,-1.17657 0.0388,-1.76394 0,-3.79685 5.36955,-3.79685 5.36955,0 z"
       inkscape:connector-curvature="0"
       transform="translate(0,572.36217)" />
    <path
       style="fill:#000000;fill-opacity:1;stroke:none"
       id="path3963"
       d="m 230.25738,753.76034 c -0.90554,0.0763 -1.80493,-0.009 -2.70101,-0.1373 -1.37531,-0.19347 -2.71271,-0.56403 -4.01577,-1.03639 -1.70114,-0.62019 -3.1625,-1.65124 -4.51065,-2.83637 -1.58168,-1.50739 -2.77154,-3.34667 -3.9408,-5.17578 -1.40658,-2.28008 -2.31822,-4.80876 -3.23614,-7.31187 -0.49369,-1.28923 -0.95472,-2.58988 -1.38945,-3.90001 -1.26008,-3.71462 3.99318,-5.49665 5.25327,-1.78203 l 0,0 c 0.4356,1.25375 0.89809,2.49711 1.38792,3.73081 0.8043,2.13599 1.58397,4.29629 2.70324,6.29282 0.87922,1.42201 1.78262,2.84282 2.94045,4.05897 0.78294,0.76002 1.68255,1.3821 2.70575,1.77686 0.9476,0.36716 1.93527,0.62302 2.9393,0.78153 0.61774,0.10853 1.23653,0.15732 1.86389,0.16094 3.80269,0 3.80269,5.37782 0,5.37782 z"
       inkscape:connector-curvature="0"
       transform="translate(0,572.36217)" />
    <path
       style="fill:#000000;fill-opacity:1;stroke:none"
       id="path3965"
       d="m 234.70271,721.2438 c 0.88495,-0.0755 1.74713,0.17256 2.59383,0.3934 1.45355,0.38021 2.84161,0.96463 4.24774,1.4862 1.6901,0.57998 3.19523,1.50327 4.58684,2.60738 0.60318,0.4727 1.12799,1.02427 1.64299,1.588 2.60217,2.86742 -1.45298,6.54745 -4.05515,3.68003 l 0,0 c -0.31523,-0.3523 -0.65218,-0.68103 -1.02249,-0.97656 -0.92694,-0.75299 -1.95337,-1.33692 -3.08402,-1.73303 -1.25836,-0.47427 -2.50287,-0.99228 -3.78919,-1.38689 -0.37875,-0.11493 -0.7273,-0.2883 -1.12055,-0.28898 -3.79684,0 -3.79684,-5.36955 0,-5.36955 z"
       inkscape:connector-curvature="0"
       transform="translate(0,572.36217)" />
    <path
       style="fill:#000000;fill-opacity:1;stroke:none"
       id="path3967"
       d="m 230.44429,724.40266 c -0.84014,-0.0547 -1.67826,-0.29502 -2.4881,-0.51712 -1.9252,-0.59101 -3.7339,-1.49446 -5.52355,-2.4047 -2.27602,-1.21135 -4.60434,-2.31983 -6.87566,-3.53981 -0.32467,-0.1865 -0.64933,-0.373 -0.974,-0.5595 -3.43393,-1.93428 -0.69844,-6.7906 2.7355,-4.85632 l 0,0 c 0.28241,0.15546 0.56483,0.31092 0.84724,0.46638 2.28131,1.17756 4.61119,2.25995 6.85508,3.50996 1.45345,0.77293 2.90031,1.58543 4.46215,2.12305 0.66334,0.20608 1.32845,0.39664 2.0161,0.50427 3.72913,0.74583 2.67437,6.01961 -1.05476,5.27379 z"
       inkscape:connector-curvature="0"
       transform="translate(0,572.36217)" />
    <path
       style="fill:#000000;fill-opacity:1;stroke:none"
       id="path3971"
       d="m 233.27414,748.7438 c 1.84535,0.0263 3.66296,0.39101 5.46373,0.76412 3.42172,0.77747 6.82507,1.62381 10.18439,2.6387 2.85245,0.82623 5.53952,2.05116 8.06015,3.60857 1.96581,1.26198 3.4587,3.00176 4.66144,4.97759 0.92914,1.65826 1.48049,3.47603 1.94053,5.30902 0.4357,1.68034 0.40414,3.36902 0.0584,5.05594 -0.27163,1.236 -0.87724,2.30297 -1.6481,3.28846 -2.41565,3.00102 -6.65974,-0.41523 -4.24409,-3.41625 l 0,0 c 0.26552,-0.29593 0.44987,-0.61395 0.5356,-1.01004 0.19844,-0.8652 0.1895,-1.70626 -0.0505,-2.57085 -0.33161,-1.31055 -0.70944,-2.61612 -1.34125,-3.81876 -0.70777,-1.22479 -1.63539,-2.27486 -2.83097,-3.05026 -2.11614,-1.28186 -4.39292,-2.23501 -6.77636,-2.9068 -3.23796,-0.95802 -6.51965,-1.74508 -9.7902,-2.58211 -1.27678,-0.31313 -2.56613,-0.62723 -3.86416,-0.84371 -0.15233,-0.0254 -0.30862,-0.025 -0.45986,-0.0563 -0.0336,-0.007 0.0675,-0.0119 0.10125,-0.0178 -3.79684,0 -3.79684,-5.36955 0,-5.36955 z"
       inkscape:connector-curvature="0"
       transform="translate(0,572.36217)" />
    <rect
       y="1230.2903"
       x="292.20258"
       height="146.47212"
       width="89.90358"
       id="rect3973"
       style="fill:#4d4d4d;fill-opacity:1;stroke:none"
       inkscape:export-filename="/home/turupawn/Projects/GDX/Semana8/android/assets/3.png"
       inkscape:export-xdpi="90"
       inkscape:export-ydpi="90" />
    <path
       style="fill:#000000;fill-opacity:1;stroke:none"
       id="path4003"
       d="m 334.94014,678.04192 c -0.0421,0.002 -0.16775,-0.001 -0.12634,0.007 0.0738,0.0143 0.17947,-0.0474 0.2252,0.0122 0.011,0.0144 -0.13661,0.0382 -0.51647,0.15897 -0.51066,0.16241 -0.46555,0.1554 -0.99849,0.36363 -2.01202,0.93552 -4.0319,1.85527 -5.94853,2.9763 -2.05379,1.18563 -3.54093,2.97274 -4.96112,4.82396 -1.14989,1.50697 -1.99202,3.20267 -2.69538,4.95392 -0.29869,0.95076 -0.57907,1.98695 -0.14932,2.93456 0.50949,0.7707 1.22718,1.36422 1.96657,1.90282 1.0752,0.76475 2.34576,1.10965 3.60609,1.42874 1.52205,0.31858 3.05728,0.64963 4.61651,0.68649 1.11832,0.0516 2.11232,-0.34621 3.09839,-0.81921 1.08379,-0.55915 2.11357,-1.22988 3.04994,-2.0112 0.81056,-0.74743 1.32444,-1.70579 1.76519,-2.70041 0.47214,-1.21077 0.77268,-2.47891 1.00845,-3.75412 0.21364,-1.24658 0.39922,-2.50234 0.46538,-3.76622 0.0539,-0.95622 -0.14721,-1.87395 -0.44186,-2.77498 -0.2383,-0.84303 -0.67201,-1.5191 -1.27607,-2.13474 -0.51796,-0.52793 -1.18669,-0.8303 -1.862,-1.10133 -0.58462,-0.22168 -1.19433,-0.33304 -1.81753,-0.28202 -0.067,0.0126 -0.13594,0.0173 -0.20096,0.0377 -0.0356,0.0112 -0.0917,0.0418 -0.0809,0.0775 0.0143,0.0469 0.18122,-0.0745 0.23631,-0.0372 -2.28211,3.10223 -6.66933,-0.12516 -4.38722,-3.22739 l 0,0 c 1.20582,-1.5004 2.25,-2.1005 4.17038,-2.29883 1.42109,-0.0531 2.81957,0.12974 4.14671,0.66779 1.39278,0.57429 2.71625,1.29409 3.7742,2.39079 1.15271,1.23543 2.04255,2.62203 2.53327,4.25323 0.47743,1.54368 0.77928,3.12733 0.69193,4.75231 -0.0948,1.49724 -0.27429,2.98794 -0.53596,4.46555 -0.32698,1.70486 -0.72057,3.40527 -1.40127,5.00898 -0.81095,1.76345 -1.81232,3.41847 -3.30854,4.69282 -1.29789,1.0425 -2.67991,1.98128 -4.1739,2.72329 -1.78519,0.83633 -3.64688,1.43179 -5.64557,1.36386 -1.96211,-0.081 -3.90299,-0.38795 -5.81299,-0.8458 -1.95696,-0.51437 -3.88152,-1.1691 -5.52864,-2.38449 -1.62744,-1.24377 -3.11194,-2.65895 -3.89393,-4.60007 -0.11196,-0.3781 -0.25413,-0.74854 -0.3359,-1.1343 -0.39699,-1.87285 -0.0432,-3.78917 0.56395,-5.57222 0.88241,-2.22407 1.94134,-4.37621 3.38326,-6.29847 1.85805,-2.45842 3.90183,-4.7565 6.61066,-6.3102 2.22264,-1.26952 4.55066,-2.34091 6.93288,-3.27739 1.04497,-0.34441 2.14028,-0.7227 3.25358,-0.72133 3.79685,0 3.79685,5.36955 0,5.36955 z"
       inkscape:connector-curvature="0"
       transform="translate(0,572.36217)" />
    <path
       style="fill:#000000;fill-opacity:1;stroke:none"
       id="path4005"
       d="m 333.74581,702.80248 c 0.63361,0.64145 1.0508,1.43886 1.41778,2.25224 0.53752,1.34662 0.74515,2.79059 0.97407,4.21372 0.23814,1.53547 0.38213,3.083 0.50589,4.63118 0.12383,1.58638 0.18592,3.17662 0.24299,4.76652 0.0612,1.96028 0.089,3.92127 0.11543,5.88224 0.0235,2.3603 0.06,4.72061 0.0456,7.08103 -0.13378,3.11777 -0.29668,6.23496 -0.48173,9.3502 -0.15271,2.63072 -0.42938,5.25202 -0.67591,7.87507 -0.0281,0.32211 -0.0562,0.64423 -0.0842,0.96634 -0.31352,3.91947 -5.85648,3.47608 -5.54296,-0.44338 l 0,0 c 0.0241,-0.33047 0.0482,-0.66094 0.0724,-0.99141 0.19295,-2.58057 0.40968,-5.15973 0.54991,-7.74389 0.17959,-3.02658 0.34608,-6.05389 0.5381,-9.07972 0.0419,-2.31881 0.0139,-4.63802 0.004,-6.95708 -0.0135,-1.92599 -0.03,-3.85213 -0.0738,-5.77769 -0.0333,-1.4948 -0.0835,-2.98952 -0.19638,-4.48076 -0.11773,-1.41295 -0.26073,-2.82384 -0.4622,-4.2276 -0.14791,-0.97631 -0.26327,-1.96451 -0.53331,-2.9165 -0.0693,-0.18457 -0.46708,-0.96511 -0.21657,-0.60004 -2.68734,-2.68734 1.11314,-6.48782 3.80048,-3.80047 z"
       inkscape:connector-curvature="0"
       transform="translate(0,572.36217)" />
    <path
       style="fill:#000000;fill-opacity:1;stroke:none"
       id="path4007"
       d="m 334.64135,747.36804 c 0.22806,-0.2183 0.45606,-0.4418 0.6748,-0.67275 0.7713,-0.83107 1.44567,-1.74797 2.16186,-2.62692 1.11942,-1.32714 2.24271,-2.65094 3.35859,-3.98112 1.0609,-1.22887 2.06729,-2.50249 3.08184,-3.76934 0.91049,-1.22465 2.0116,-2.26849 3.18098,-3.23947 1.08418,-0.87509 2.36956,-1.65049 3.8022,-1.72395 0.35546,-0.0182 0.71147,0.0237 1.0672,0.0355 1.94404,0.31616 3.19264,1.69128 4.36356,3.14607 1.03959,1.29752 1.99158,2.65989 2.9299,4.03129 0.96565,1.43834 1.7957,2.95814 2.51576,4.5322 0.35871,0.83976 0.75955,1.66012 1.14276,2.48868 1.63638,3.52329 -3.34631,5.83749 -4.9827,2.31419 l 0,0 c -0.39119,-0.83827 -0.80615,-1.66534 -1.17439,-2.5143 -0.58672,-1.28952 -1.28249,-2.52435 -2.06923,-3.70292 -0.86841,-1.27547 -1.74659,-2.54312 -2.69821,-3.75872 -0.0903,-0.12072 -0.84093,-1.05257 -0.81353,-1.08613 0.0469,-0.0575 0.18205,0.04 0.21991,-0.0347 0.3535,-0.0841 0.22742,-0.10373 0.11467,-0.079 -0.35783,0.0785 -0.63497,0.38841 -0.92253,0.5828 -0.88045,0.7223 -1.69584,1.50414 -2.35945,2.43718 -1.03379,1.31257 -2.05867,2.63308 -3.14887,3.89984 -1.10282,1.31895 -2.22232,2.62358 -3.35036,3.92098 -0.83911,1.012 -1.64021,2.0619 -2.58553,2.97933 -0.48054,0.46262 -0.96689,0.92766 -1.52936,1.29102 -3.16063,2.10709 -6.14051,-2.36272 -2.97987,-4.46982 z"
       inkscape:connector-curvature="0"
       transform="translate(0,572.36217)" />
    <path
       style="fill:#000000;fill-opacity:1;stroke:none"
       id="path4009"
       d="m 332.14437,754.77481 c 0.5984,-0.325 0.90488,-1.34152 0.50198,-0.0829 -0.29945,0.99385 -0.52225,2.00801 -0.76105,3.01764 -0.45123,1.82606 -1.11952,3.58624 -1.77394,5.3463 -0.69957,1.83056 -1.42132,3.65289 -2.16079,5.46769 -0.60139,1.36289 -1.17007,2.79864 -2.18248,3.9218 -0.25186,0.27942 -0.54344,0.52029 -0.81516,0.78043 -1.35751,1.09552 -2.96984,1.75247 -4.60303,2.31243 -0.93797,0.31542 -1.91138,0.49931 -2.85965,0.77756 -3.7093,1.08836 -5.24848,-4.15737 -1.53918,-5.24574 l 0,0 c 0.86494,-0.25378 1.74406,-0.45148 2.60578,-0.71624 0.94186,-0.32952 1.87731,-0.6906 2.7258,-1.22416 0.87338,-0.57568 1.07542,-1.79129 1.52562,-2.66818 0.70336,-1.78436 1.39665,-3.57282 2.09576,-5.3588 0.58773,-1.55312 1.1991,-3.10167 1.63977,-4.70484 0.29265,-1.15273 0.57066,-2.31073 0.95059,-3.43872 0.35838,-1.00981 0.71879,-2.04368 1.6701,-2.65413 3.16064,-2.1071 6.14052,2.36272 2.97988,4.46981 z"
       inkscape:connector-curvature="0"
       transform="translate(0,572.36217)" />
    <path
       style="fill:#000000;fill-opacity:1;stroke:none"
       id="path4011"
       d="m 333.72466,718.61033 c -0.7413,0.47498 -1.27772,1.1014 -1.80328,1.79634 -1.25371,1.73062 -2.01833,3.73206 -2.80505,5.70051 -0.90606,2.28674 -1.71512,4.60813 -2.50852,6.93553 -0.22853,0.67717 -0.47899,1.34653 -0.72478,2.01752 -1.20108,3.67536 -6.39883,1.97677 -5.19774,-1.69859 l 0,0 c 0.19981,-0.68573 0.40719,-1.36913 0.62624,-2.04901 0.77379,-2.47411 1.60886,-4.92831 2.57506,-7.33496 1.01849,-2.45747 2.04943,-4.94132 3.72388,-7.04051 0.80143,-0.96017 1.6453,-1.91074 2.75107,-2.53073 2.9726,-2.37809 6.33572,1.82582 3.36312,4.2039 z"
       inkscape:connector-curvature="0"
       transform="translate(0,572.36217)" />
    <path
       style="fill:#000000;fill-opacity:1;stroke:none"
       id="path4013"
       d="m 336.13129,714.10094 c 0.4186,-0.0179 0.83766,-0.0179 1.25648,-0.0281 1.02783,-0.011 2.05399,-0.0146 3.07889,-0.0986 1.23054,-0.12391 2.42916,-0.44444 3.6193,-0.76786 1.22575,-0.39352 2.46299,-0.74611 3.71577,-1.04216 1.49605,-0.3328 3.0055,-0.29979 4.50378,-0.0269 3.79939,0.73642 2.75793,6.10957 -1.04145,5.37315 l 0,0 c -0.72974,-0.16136 -1.4674,-0.16115 -2.20359,-0.0161 -1.19145,0.28111 -2.35724,0.65379 -3.52487,1.01958 -1.53544,0.42113 -3.08634,0.81405 -4.67818,0.94576 -1.15625,0.0734 -2.31167,0.0709 -3.46965,0.0388 -0.41882,-0.0102 -0.83788,-0.0102 -1.25648,-0.0281 -3.79685,0 -3.79685,-5.36955 0,-5.36955 z"
       inkscape:connector-curvature="0"
       transform="translate(0,572.36217)" />
    <g
       id="g4054"
       inkscape:export-filename="/home/turupawn/Projects/GDX/Semana8/android/assets/bg.png"
       inkscape:export-xdpi="90"
       inkscape:export-ydpi="90">
      <rect
         y="872.47693"
         x="732.66309"
         height="480"
         width="640"
         id="rect2985"
         style="fill:#ffff00;fill-opacity:1;stroke:none" />
      <path
         inkscape:transform-center-y="-7.5293826"
         inkscape:transform-center-x="7.5293864"
         transform="matrix(0.65991169,0,0,0.65991169,363.70347,703.48911)"
         d="m 885.2008,503.77224 -55.44748,-18.80278 -46.92331,35.01672 0.74829,-58.54407 -47.80298,-33.80595 55.90996,-17.37944 17.37943,-55.90996 33.80596,47.80299 58.54407,-0.7483 -35.01673,46.92331 z"
         inkscape:randomized="0"
         inkscape:rounded="0"
         inkscape:flatsided="false"
         sodipodi:arg2="1.4137167"
         sodipodi:arg1="0.78539816"
         sodipodi:r2="44.083641"
         sodipodi:r1="88.167282"
         sodipodi:cy="441.42856"
         sodipodi:cx="822.85712"
         sodipodi:sides="5"
         id="path4034"
         style="fill:#808000;stroke:none"
         sodipodi:type="star" />
      <path
         sodipodi:type="star"
         style="fill:#808000;stroke:none"
         id="path4036"
         sodipodi:sides="5"
         sodipodi:cx="822.85712"
         sodipodi:cy="441.42856"
         sodipodi:r1="88.167282"
         sodipodi:r2="44.083641"
         sodipodi:arg1="0.78539816"
         sodipodi:arg2="1.4137167"
         inkscape:flatsided="false"
         inkscape:rounded="0"
         inkscape:randomized="0"
         d="m 885.2008,503.77224 -55.44748,-18.80278 -46.92331,35.01672 0.74829,-58.54407 -47.80298,-33.80595 55.90996,-17.37944 17.37943,-55.90996 33.80596,47.80299 58.54407,-0.7483 -35.01673,46.92331 z"
         transform="matrix(0.65991169,0,0,0.65991169,566.56061,830.63197)"
         inkscape:transform-center-x="7.5293864"
         inkscape:transform-center-y="-7.5293826" />
      <path
         inkscape:transform-center-y="-7.5293826"
         inkscape:transform-center-x="7.5293864"
         transform="matrix(0.65991169,0,0,0.65991169,696.56061,677.77483)"
         d="m 885.2008,503.77224 -55.44748,-18.80278 -46.92331,35.01672 0.74829,-58.54407 -47.80298,-33.80595 55.90996,-17.37944 17.37943,-55.90996 33.80596,47.80299 58.54407,-0.7483 -35.01673,46.92331 z"
         inkscape:randomized="0"
         inkscape:rounded="0"
         inkscape:flatsided="false"
         sodipodi:arg2="1.4137167"
         sodipodi:arg1="0.78539816"
         sodipodi:r2="44.083641"
         sodipodi:r1="88.167282"
         sodipodi:cy="441.42856"
         sodipodi:cx="822.85712"
         sodipodi:sides="5"
         id="path4038"
         style="fill:#808000;stroke:none"
         sodipodi:type="star" />
    </g>
    <rect
       inkscape:export-ydpi="90"
       inkscape:export-xdpi="90"
       inkscape:export-filename="/home/turupawn/Projects/GDX/Semana8/android/assets/1.png"
       style="fill:#4d4d4d;fill-opacity:1;stroke:none"
       id="rect4064"
       width="89.90358"
       height="146.47212"
       x="-382.10614"
       y="1409.0873"
       transform="scale(-1,1)" />
    <path
       inkscape:connector-curvature="0"
       d="m 339.4531,1425.9752 c 0.40648,-0.037 0.95887,-0.1007 1.41327,-0.1346 1.10952,-0.017 2.22403,0.1708 3.30154,0.4257 1.29273,0.3166 2.4994,0.8833 3.67773,1.4885 0.99183,0.4864 1.92303,1.0839 2.6201,1.9501 0.62881,0.849 0.9354,1.8671 1.22026,2.8699 0.37315,1.2448 0.43024,2.5289 0.26014,3.81 -0.27664,1.7008 -1.24822,3.1495 -2.16455,4.5697 -1.27221,1.9557 -2.90807,3.6074 -4.72098,5.0588 -1.45442,1.1089 -3.07421,1.9753 -4.82307,2.5083 -1.42003,0.334 -2.87131,0.2125 -4.28306,-0.089 -1.17496,-0.4076 -2.22156,-1.0847 -3.11843,-1.9373 -0.92233,-0.9189 -1.54777,-2.0302 -2.05939,-3.2131 -0.51852,-1.2673 -0.81686,-2.6067 -1.07427,-3.9469 -0.17627,-1.0801 -0.19983,-2.1758 -0.0576,-3.2598 0.12651,-0.7957 0.58338,-1.3337 1.1579,-1.8523 1.01687,-0.8493 2.27765,-1.3134 3.49521,-1.7934 1.37027,-0.5581 2.81013,-0.9013 4.25386,-1.2047 0.31203,-0.06 2.47452,-0.5001 2.6263,-0.2446 -0.0129,0.015 -0.0256,0.021 -0.0383,0.032 3.55461,1.5666 5.76991,-3.4605 2.21532,-5.0269 l 0,0 c -0.30612,-0.119 -0.61224,-0.2376 -0.91835,-0.3565 -0.3238,-0.062 -0.64421,-0.1472 -0.97143,-0.1892 -1.3545,-0.1738 -2.71505,0.1361 -4.04053,0.3682 -1.75485,0.3616 -3.49788,0.7944 -5.16484,1.463 -1.90633,0.7545 -3.80892,1.5793 -5.32775,2.9998 -1.52509,1.5477 -2.40804,2.9549 -2.75896,5.1285 -0.19802,1.6592 -0.19763,3.3314 0.0971,4.9819 0.33685,1.7475 0.74139,3.4889 1.43676,5.1342 0.83466,1.8724 1.87687,3.6268 3.37425,5.0543 1.6679,1.5115 3.56266,2.7214 5.76243,3.3002 2.35104,0.468 4.74276,0.6074 7.08137,-0.044 2.39237,-0.7807 4.64576,-1.8996 6.64076,-3.4507 2.28795,-1.8435 4.36713,-3.9242 5.94543,-6.4227 1.35007,-2.1606 2.6346,-4.3955 2.95289,-6.9718 0.18959,-2.0032 0.13282,-4.0025 -0.46635,-5.9421 -0.51867,-1.7717 -1.16829,-3.5107 -2.35991,-4.9534 -1.21083,-1.3535 -2.61197,-2.4717 -4.26399,-3.252 -1.59217,-0.8182 -3.2336,-1.5532 -4.98486,-1.9613 -1.64262,-0.3612 -3.32818,-0.6351 -5.01519,-0.5117 -0.99237,0.099 -2.00578,0.1954 -2.94221,0.5614 -3.57317,1.4292 -1.55188,6.4824 2.02129,5.0531 z"
       id="path4066"
       style="fill:#000000;stroke:none" />
    <path
       inkscape:connector-curvature="0"
       d="m 339.20555,1455.5426 c -0.0212,-0.037 -0.0576,-0.1524 -0.0636,-0.1104 -0.0129,0.086 0.44042,1.5743 0.48209,1.7476 0.32437,1.6193 0.51126,3.2588 0.64798,4.903 0.20192,2.4883 0.29792,4.9831 0.3826,7.4775 0.0918,2.798 0.13655,5.5973 0.16313,8.3967 0.0301,3.2385 0.0529,6.4773 0.0674,9.716 0.0129,3.0304 0.0305,6.0609 0.055,9.0913 0.003,0.4053 0.007,0.8108 0.01,1.2161 0.01,3.9557 5.60469,3.941 5.59423,-0.015 l 0,0 c 0.001,-0.4056 0.003,-0.8114 0.004,-1.2171 0.007,-3.0351 0.007,-6.0702 -0.01,-9.1053 -0.0195,-3.2536 -0.0355,-6.5074 -0.0847,-9.7609 -0.048,-2.8397 -0.097,-5.6796 -0.19133,-8.5183 -0.0936,-2.5999 -0.20207,-5.2006 -0.43075,-7.7927 -0.19279,-1.929 -0.42605,-3.8571 -0.87221,-5.7467 -0.24295,-0.9206 -0.49967,-1.8433 -0.88848,-2.7148 -1.72028,-3.4405 -6.58592,-1.0079 -4.86565,2.4328 z"
       id="path4068"
       style="fill:#000000;fill-opacity:1;stroke:none" />
    <path
       inkscape:connector-curvature="0"
       d="m 342.28601,1499.3026 c -1.00991,-0.2171 -2.0357,-0.4237 -3.05572,-0.6243 -3.17308,-0.6878 -6.33912,-1.4088 -9.49299,-2.1811 -3.96501,-0.9346 -7.92368,-1.8955 -11.89588,-2.7992 -2.28129,-0.453 -4.62607,-1.2039 -6.98108,-0.8638 -0.44036,0.064 -0.8673,0.1992 -1.30096,0.2988 -2.9289,1.1839 -3.95103,3.245 -4.9209,6.0699 -0.73974,2.383 -1.05607,4.8626 -1.41208,7.3233 -0.30344,1.9599 -0.6329,3.9156 -0.94814,5.8737 -0.26004,1.5935 -0.44503,3.1974 -0.60028,4.804 -0.38911,3.8856 5.10599,4.4359 5.49509,0.5503 l 0,0 c 0.15462,-1.4879 0.33126,-2.9741 0.58083,-4.4494 0.33693,-1.9869 0.67705,-3.9732 0.99514,-5.9633 0.32173,-2.1366 0.58137,-4.2931 1.17769,-6.3761 0.27169,-0.8528 0.52806,-1.7264 1.03819,-2.4737 1.49557,-0.6148 4.07068,0.5074 5.58501,0.7241 3.95083,0.951 7.89431,1.9327 11.85428,2.8456 3.26099,0.7646 6.53914,1.4575 9.83031,2.0784 1.05231,0.1765 2.10739,0.3503 3.15645,0.5332 3.7974,0.6328 4.69246,-4.7375 0.89504,-5.3704 z"
       id="path4070"
       style="fill:#000000;fill-opacity:1;stroke:none" />
    <path
       inkscape:connector-curvature="0"
       d="m 340.68641,1502.8328 c -0.0228,0.7997 -0.0278,1.5999 -0.0346,2.3998 -0.0143,1.5968 -0.0159,3.1934 -0.0188,4.7902 -0.003,1.6175 0.004,3.235 0.0114,4.8524 0.004,1.2582 -0.0191,2.5147 0.0951,3.7683 0.10411,1.3068 0.5005,2.5438 1.02118,3.7377 0.51586,1.1343 1.21789,2.1643 1.91616,3.1908 0.47119,0.6477 0.81573,1.3592 1.09379,2.1061 0.43334,1.2865 1.10614,2.4296 1.97253,3.4658 1.25768,1.3267 2.88471,1.9392 4.63641,2.2882 1.8421,0.3269 3.68147,0.034 5.49182,-0.3266 2.03739,-0.4153 3.96081,-1.1935 5.82786,-2.0885 2.16364,-1.0289 4.04079,-2.4875 5.75232,-4.1446 1.4757,-1.5347 2.66734,-3.3002 3.78207,-5.1045 2.07448,-3.3511 -2.66472,-6.285 -4.73921,-2.9337 l 0,0 c -0.88132,1.42 -1.82327,2.8049 -2.94259,4.0513 -1.26335,1.2535 -2.65806,2.3506 -4.27157,3.1256 -1.44627,0.7057 -2.93257,1.3246 -4.51273,1.6645 -1.10651,0.2304 -2.23099,0.4846 -3.36678,0.3371 -0.55232,-0.093 -1.09937,-0.1674 -1.55325,-0.5272 -0.52585,-0.3716 -0.66212,-1.2032 -0.93681,-1.7451 -0.43796,-1.1528 -0.97306,-2.2616 -1.6895,-3.2707 -0.51537,-0.7521 -1.04162,-1.5016 -1.43571,-2.3272 -0.2984,-0.645 -0.53113,-1.3062 -0.57263,-2.0238 -0.11305,-1.0769 -0.0217,-2.1628 -0.044,-3.2435 0.007,-1.6174 0.0144,-3.2349 0.0114,-4.8524 -0.003,-1.5968 -0.004,-3.1934 -0.0188,-4.7902 -0.007,-0.7999 -0.0114,-1.6001 -0.0346,-2.3998 0,-3.8476 -5.44144,-3.8476 -5.44144,0 z"
       id="path4072"
       style="fill:#000000;fill-opacity:1;stroke:none" />
    <path
       inkscape:connector-curvature="0"
       d="m 345.74299,1474.6514 c 1.0459,-0.2638 2.09023,-0.5236 3.15109,-0.7226 1.77352,-0.28 3.56847,-0.4011 5.35855,-0.5221 1.9512,-0.1075 3.85138,0.4145 5.70787,0.9489 2.13919,0.5903 4.18252,1.4522 6.17174,2.425 1.15161,0.6207 2.25735,1.3314 3.13376,2.3113 2.59759,2.901 6.70023,-0.7726 4.10265,-3.6736 l 0,0 c -1.35303,-1.5102 -2.96582,-2.714 -4.77318,-3.6402 -2.28802,-1.1332 -4.64171,-2.135 -7.11037,-2.8093 -2.48095,-0.6921 -5.01402,-1.2881 -7.61134,-1.1169 -2.02167,0.139 -4.04915,0.283 -6.04436,0.6531 -0.71167,0.1446 -1.41511,0.2993 -2.11519,0.493 -0.28831,0.081 -0.59526,0.1189 -0.85882,0.2605 -0.0344,0.019 0.0782,3e-4 0.11721,4e-4 -3.81302,0.5448 -3.04267,5.9371 0.77034,5.3925 z"
       id="path4074"
       style="fill:#000000;fill-opacity:1;stroke:none" />
    <path
       inkscape:connector-curvature="0"
       d="m 339.88465,1472.7541 c -0.60774,0.4296 -1.12922,0.9621 -1.68756,1.45 -0.81178,0.6942 -1.75483,1.1622 -2.73767,1.558 -1.25357,0.4914 -2.56937,0.7457 -3.90713,0.8435 -2.06999,0.023 -4.12511,-0.2674 -6.14482,-0.6978 -1.46265,-0.3675 -2.84689,-0.9584 -4.19522,-1.6229 -3.51807,-1.7472 -5.9888,3.2282 -2.47072,4.9754 l 0,0 c 1.76383,0.8809 3.58114,1.6521 5.50611,2.1112 2.56022,0.542 5.16707,0.9197 7.79197,0.7652 1.89189,-0.1857 3.75768,-0.5457 5.52826,-1.2617 1.56192,-0.6541 3.05342,-1.4468 4.31601,-2.5946 0.42261,-0.3908 0.82283,-0.8044 1.26563,-1.1731 3.07813,-2.3085 -0.18672,-6.6617 -3.26486,-4.3532 z"
       id="path4076"
       style="fill:#000000;fill-opacity:1;stroke:none" />
    <rect
       inkscape:export-ydpi="90"
       inkscape:export-xdpi="90"
       inkscape:export-filename="/home/turupawn/Projects/GDX/Semana8/android/assets/2.png"
       y="1409.0873"
       x="-263.41327"
       height="146.47212"
       width="89.90358"
       id="rect4078"
       style="fill:#4d4d4d;fill-opacity:1;stroke:none"
       transform="scale(-1,1)" />
    <path
       inkscape:connector-curvature="0"
       d="m 220.90871,1427.2837 c 0.39214,0.2451 0.0888,0.1297 -0.17807,0.087 -0.50862,0.028 -1.03339,0.024 -1.54736,0.032 -0.76976,0.01 -1.53602,0.099 -2.29821,0.2009 -0.8223,0.05 -1.59745,0.2603 -2.36607,0.5419 -0.76333,0.2996 -1.52738,0.6182 -2.16682,1.1396 -0.59753,0.4705 -1.04542,1.0842 -1.42339,1.7366 -0.36357,0.6321 -0.57379,1.3299 -0.7619,2.0296 -0.1965,0.7194 -0.25752,1.4424 -0.20108,2.1825 0.22446,0.8669 0.49277,1.719 0.8722,2.5308 0.49411,0.9896 1.03047,1.957 1.57753,2.9181 0.54414,0.9793 1.23062,1.8667 1.91573,2.7494 0.7303,0.9693 1.56498,1.8386 2.4535,2.6616 0.84287,0.7805 1.79568,1.4215 2.83664,1.9034 1.31805,0.5887 2.73143,0.8929 4.14567,1.1427 1.57211,0.2838 3.16796,0.2816 4.75005,0.1067 1.37091,-0.1698 2.7101,-0.5221 3.96851,-1.0914 0.72731,-0.3466 1.15035,-0.9924 1.55048,-1.6601 0.39623,-0.7023 0.69548,-1.4559 0.84617,-2.2481 0.0302,-0.6344 -0.11083,-1.2399 -0.34717,-1.8231 -0.40481,-0.9556 -0.98699,-1.8198 -1.58064,-2.6658 -0.66582,-0.9436 -1.46696,-1.7753 -2.34328,-2.5229 -0.89764,-0.8061 -1.91852,-1.443 -2.95746,-2.0469 -0.94496,-0.5026 -1.86176,-1.0657 -2.86242,-1.4528 -0.85863,-0.3339 -1.76042,-0.5207 -2.66531,-0.6758 -0.49245,-0.053 -0.2577,-0.037 -0.70388,-0.054 -3.85835,-0.1792 -3.60486,-5.6358 0.25349,-5.4565 l 0,0 c 0.9313,0.047 0.46703,0.01 1.39279,0.1198 1.2817,0.2274 2.55602,0.5093 3.771,0.9879 1.22954,0.5073 2.401,1.1268 3.56212,1.7742 1.34736,0.7745 2.6583,1.6156 3.82235,2.6525 1.19979,1.0587 2.32376,2.2024 3.232,3.5273 0.86801,1.2451 1.69211,2.5324 2.23771,3.9568 0.53297,1.5623 0.8261,3.1705 0.53611,4.8203 -0.31319,1.3929 -0.78329,2.7399 -1.51605,3.9732 -0.99919,1.6114 -2.22934,3.0126 -3.98444,3.8277 -1.7891,0.7904 -3.66065,1.3545 -5.61207,1.5693 -2.11618,0.2278 -4.25071,0.233 -6.3504,-0.1655 -1.91013,-0.3609 -3.81384,-0.8056 -5.58041,-1.6425 -1.50343,-0.7641 -2.91609,-1.6838 -4.15814,-2.8331 -1.09409,-1.0278 -2.1235,-2.1168 -3.03094,-3.3155 -0.84852,-1.0898 -1.67132,-2.2023 -2.34722,-3.41 -0.62945,-1.1087 -1.24523,-2.2263 -1.80978,-3.3696 -0.63645,-1.4382 -1.16749,-2.9355 -1.34187,-4.5078 -0.0511,-1.3119 0.049,-2.6095 0.40331,-3.8798 0.317,-1.1772 0.70603,-2.3367 1.32167,-3.3964 0.75009,-1.254 1.64195,-2.4132 2.81518,-3.3047 1.11664,-0.827 2.32992,-1.4824 3.64621,-1.9392 1.13228,-0.396 2.28596,-0.7014 3.48618,-0.7977 0.97476,-0.1276 1.95502,-0.2278 2.93928,-0.2289 0.85445,-0.01 1.71373,-0.04 2.5632,0.072 0.77423,0.144 1.55278,0.3258 2.21518,0.7744 3.16064,2.1071 0.18076,6.5769 -2.97988,4.4698 z"
       id="path4080"
       style="fill:#000000;fill-opacity:1;stroke:none" />
    <path
       inkscape:connector-curvature="0"
       d="m 219.32929,1457.2915 c -0.0304,0.5873 -0.0319,1.1759 -0.0388,1.7639 -0.0336,1.1104 0.026,2.2238 -0.0601,3.3319 -0.12876,1.5733 -0.3002,3.1426 -0.44628,4.7143 -0.24905,2.8114 -0.33919,5.6334 -0.42582,8.4534 -0.10252,3.7047 -0.13528,7.4107 -0.17398,11.1165 -0.0189,3.4041 -0.0585,6.8089 -3.7e-4,10.2128 0.005,1.2896 0.13629,2.5664 0.30908,3.8418 0.48896,3.9071 6.01449,3.2156 5.52553,-0.6915 l 0,0 c -0.11763,-1.0631 -0.18538,-2.1283 -0.17832,-3.199 0.001,-3.3704 0.0786,-6.7404 0.0917,-10.1108 0.0299,-3.6781 0.077,-7.356 0.13265,-11.0338 0.0455,-2.7073 0.0845,-5.4166 0.25166,-8.1198 0.12372,-1.6205 0.28082,-3.2383 0.40164,-4.8591 0.0583,-1.2183 0.033,-2.4373 0.0197,-3.6567 -0.007,-0.588 -0.008,-1.1766 -0.0388,-1.7639 0,-3.7969 -5.36955,-3.7969 -5.36955,0 z"
       id="path4082"
       style="fill:#000000;fill-opacity:1;stroke:none" />
    <path
       inkscape:connector-curvature="0"
       d="m 222.82811,1504.9205 c 0.90554,0.076 1.80493,-0.01 2.70101,-0.1373 1.37531,-0.1935 2.71271,-0.564 4.01577,-1.0364 1.70114,-0.6202 3.1625,-1.6512 4.51065,-2.8363 1.58168,-1.5074 2.77154,-3.3467 3.9408,-5.1758 1.40658,-2.2801 2.31822,-4.8088 3.23614,-7.3119 0.49369,-1.2892 0.95472,-2.5899 1.38945,-3.9 1.26008,-3.7146 -3.99318,-5.4967 -5.25327,-1.782 l 0,0 c -0.4356,1.2537 -0.89809,2.4971 -1.38792,3.7308 -0.8043,2.136 -1.58397,4.2963 -2.70324,6.2928 -0.87922,1.422 -1.78262,2.8428 -2.94045,4.059 -0.78294,0.76 -1.68255,1.3821 -2.70575,1.7768 -0.9476,0.3672 -1.93527,0.623 -2.9393,0.7816 -0.61774,0.1085 -1.23653,0.1573 -1.86389,0.1609 -3.80269,0 -3.80269,5.3778 0,5.3778 z"
       id="path4084"
       style="fill:#000000;fill-opacity:1;stroke:none" />
    <path
       inkscape:connector-curvature="0"
       d="m 218.38278,1472.404 c -0.88495,-0.075 -1.74713,0.1725 -2.59383,0.3934 -1.45355,0.3802 -2.84161,0.9646 -4.24774,1.4862 -1.6901,0.58 -3.19523,1.5032 -4.58684,2.6074 -0.60318,0.4727 -1.12799,1.0242 -1.64299,1.588 -2.60217,2.8674 1.45298,6.5474 4.05515,3.68 l 0,0 c 0.31523,-0.3523 0.65218,-0.681 1.02249,-0.9766 0.92694,-0.753 1.95337,-1.3369 3.08402,-1.733 1.25836,-0.4743 2.50287,-0.9923 3.78919,-1.3869 0.37875,-0.1149 0.7273,-0.2883 1.12055,-0.289 3.79684,0 3.79684,-5.3695 0,-5.3695 z"
       id="path4086"
       style="fill:#000000;fill-opacity:1;stroke:none" />
    <path
       inkscape:connector-curvature="0"
       d="m 222.6412,1475.5628 c 0.84014,-0.055 1.67826,-0.295 2.4881,-0.5171 1.9252,-0.591 3.7339,-1.4944 5.52355,-2.4047 2.27602,-1.2113 4.60434,-2.3198 6.87566,-3.5398 0.32467,-0.1865 0.64933,-0.373 0.974,-0.5595 3.43393,-1.9343 0.69844,-6.7906 -2.7355,-4.8563 l 0,0 c -0.28241,0.1554 -0.56483,0.3109 -0.84724,0.4664 -2.28131,1.1775 -4.61119,2.2599 -6.85508,3.5099 -1.45345,0.773 -2.90031,1.5855 -4.46215,2.1231 -0.66334,0.2061 -1.32845,0.3966 -2.0161,0.5042 -3.72913,0.7459 -2.67437,6.0197 1.05476,5.2738 z"
       id="path4088"
       style="fill:#000000;fill-opacity:1;stroke:none" />
    <path
       inkscape:connector-curvature="0"
       d="m 219.81135,1499.904 c -1.84535,0.026 -3.66296,0.391 -5.46373,0.7641 -3.42172,0.7775 -6.82507,1.6238 -10.18439,2.6387 -2.85245,0.8262 -5.53952,2.0512 -8.06015,3.6086 -1.96581,1.2619 -3.4587,3.0017 -4.66144,4.9776 -0.92914,1.6582 -1.48049,3.476 -1.94053,5.309 -0.4357,1.6803 -0.40414,3.369 -0.0584,5.0559 0.27163,1.236 0.87724,2.303 1.6481,3.2885 2.41565,3.001 6.65974,-0.4153 4.24409,-3.4163 l 0,0 c -0.26552,-0.2959 -0.44987,-0.6139 -0.5356,-1.01 -0.19844,-0.8652 -0.1895,-1.7063 0.0505,-2.5709 0.33161,-1.3105 0.70944,-2.6161 1.34125,-3.8187 0.70777,-1.2248 1.63539,-2.2749 2.83097,-3.0503 2.11614,-1.2818 4.39292,-2.235 6.77636,-2.9068 3.23796,-0.958 6.51965,-1.7451 9.7902,-2.5821 1.27678,-0.3131 2.56613,-0.6272 3.86416,-0.8437 0.15233,-0.025 0.30862,-0.025 0.45986,-0.056 0.0336,-0.01 -0.0675,-0.012 -0.10125,-0.018 3.79684,0 3.79684,-5.3696 0,-5.3696 z"
       id="path4090"
       style="fill:#000000;fill-opacity:1;stroke:none" />
    <rect
       inkscape:export-ydpi="90"
       inkscape:export-xdpi="90"
       inkscape:export-filename="/home/turupawn/Projects/GDX/Semana8/android/assets/3.png"
       style="fill:#4d4d4d;fill-opacity:1;stroke:none"
       id="rect4092"
       width="89.90358"
       height="146.47212"
       x="-160.88275"
       y="1409.0873"
       transform="scale(-1,1)" />
    <path
       inkscape:connector-curvature="0"
       d="m 118.14535,1429.2021 c 0.0421,0 0.16775,0 0.12634,0.01 -0.0738,0.014 -0.17947,-0.047 -0.2252,0.012 -0.011,0.014 0.13661,0.038 0.51647,0.159 0.51066,0.1624 0.46555,0.1554 0.99849,0.3636 2.01202,0.9355 4.0319,1.8553 5.94853,2.9763 2.05379,1.1856 3.54093,2.9727 4.96112,4.824 1.14989,1.5069 1.99202,3.2026 2.69538,4.9539 0.29869,0.9507 0.57907,1.9869 0.14932,2.9345 -0.50949,0.7707 -1.22718,1.3643 -1.96657,1.9029 -1.0752,0.7647 -2.34576,1.1096 -3.60609,1.4287 -1.52205,0.3186 -3.05728,0.6496 -4.61651,0.6865 -1.11832,0.052 -2.11232,-0.3462 -3.09839,-0.8192 -1.08379,-0.5592 -2.11357,-1.2299 -3.04994,-2.0112 -0.81056,-0.7475 -1.32444,-1.7058 -1.76519,-2.7004 -0.47214,-1.2108 -0.77268,-2.4789 -1.00845,-3.7542 -0.21364,-1.2465 -0.39922,-2.5023 -0.46538,-3.7662 -0.0539,-0.9562 0.14721,-1.8739 0.44186,-2.775 0.2383,-0.843 0.67201,-1.5191 1.27607,-2.1347 0.51796,-0.5279 1.18669,-0.8303 1.862,-1.1013 0.58462,-0.2217 1.19433,-0.3331 1.81753,-0.282 0.067,0.013 0.13594,0.017 0.20096,0.038 0.0356,0.011 0.0917,0.042 0.0809,0.078 -0.0143,0.047 -0.18122,-0.075 -0.23631,-0.037 2.28211,3.1022 6.66933,-0.1252 4.38722,-3.2274 l 0,0 c -1.20582,-1.5004 -2.25,-2.1005 -4.17038,-2.2989 -1.42109,-0.053 -2.81957,0.1298 -4.14671,0.6678 -1.39278,0.5743 -2.71625,1.2941 -3.7742,2.3908 -1.15271,1.2354 -2.04255,2.622 -2.53327,4.2532 -0.47743,1.5437 -0.77928,3.1274 -0.69193,4.7524 0.0948,1.4972 0.27429,2.9879 0.53596,4.4655 0.32698,1.7049 0.72057,3.4053 1.40127,5.009 0.81095,1.7634 1.81232,3.4185 3.30854,4.6928 1.29789,1.0425 2.67991,1.9813 4.1739,2.7233 1.78519,0.8363 3.64688,1.4318 5.64557,1.3639 1.96211,-0.081 3.90299,-0.388 5.81299,-0.8458 1.95696,-0.5144 3.88152,-1.1691 5.52864,-2.3845 1.62744,-1.2438 3.11194,-2.659 3.89393,-4.6001 0.11196,-0.3781 0.25413,-0.7485 0.3359,-1.1343 0.39699,-1.8729 0.0432,-3.7892 -0.56395,-5.5722 -0.88241,-2.2241 -1.94134,-4.3762 -3.38326,-6.2985 -1.85805,-2.4584 -3.90183,-4.7565 -6.61066,-6.3102 -2.22264,-1.2695 -4.55066,-2.3409 -6.93288,-3.2774 -1.04497,-0.3444 -2.14028,-0.7227 -3.25358,-0.7213 -3.79685,0 -3.79685,5.3695 0,5.3695 z"
       id="path4094"
       style="fill:#000000;fill-opacity:1;stroke:none" />
    <path
       inkscape:connector-curvature="0"
       d="m 119.33968,1453.9627 c -0.63361,0.6414 -1.0508,1.4388 -1.41778,2.2522 -0.53752,1.3466 -0.74515,2.7906 -0.97407,4.2137 -0.23814,1.5355 -0.38213,3.083 -0.50589,4.6312 -0.12383,1.5864 -0.18592,3.1766 -0.24299,4.7665 -0.0612,1.9603 -0.089,3.9213 -0.11543,5.8823 -0.0235,2.3603 -0.06,4.7206 -0.0456,7.081 0.13378,3.1178 0.29668,6.2349 0.48173,9.3502 0.15271,2.6307 0.42938,5.252 0.67591,7.8751 0.0281,0.3221 0.0562,0.6442 0.0842,0.9663 0.31352,3.9195 5.85648,3.4761 5.54296,-0.4434 l 0,0 c -0.0241,-0.3305 -0.0482,-0.6609 -0.0724,-0.9914 -0.19295,-2.5806 -0.40968,-5.1597 -0.54991,-7.7439 -0.17959,-3.0266 -0.34608,-6.0539 -0.5381,-9.0797 -0.0419,-2.3188 -0.0139,-4.638 -0.004,-6.9571 0.0135,-1.926 0.03,-3.8521 0.0738,-5.7777 0.0333,-1.4948 0.0835,-2.9895 0.19638,-4.4807 0.11773,-1.413 0.26073,-2.8239 0.4622,-4.2276 0.14791,-0.9763 0.26327,-1.9645 0.53331,-2.9165 0.0693,-0.1846 0.46708,-0.9651 0.21657,-0.6001 2.68734,-2.6873 -1.11314,-6.4878 -3.80048,-3.8004 z"
       id="path4096"
       style="fill:#000000;fill-opacity:1;stroke:none" />
    <path
       inkscape:connector-curvature="0"
       d="m 118.44414,1498.5282 c -0.22806,-0.2183 -0.45606,-0.4418 -0.6748,-0.6727 -0.7713,-0.8311 -1.44567,-1.748 -2.16186,-2.627 -1.11942,-1.3271 -2.24271,-2.6509 -3.35859,-3.9811 -1.0609,-1.2288 -2.06729,-2.5025 -3.08184,-3.7693 -0.91049,-1.2247 -2.0116,-2.2685 -3.18098,-3.2395 -1.08418,-0.8751 -2.36956,-1.6505 -3.8022,-1.7239 -0.35546,-0.018 -0.71147,0.024 -1.0672,0.035 -1.944043,0.3161 -3.192643,1.6912 -4.363563,3.146 -1.03959,1.2976 -1.99158,2.6599 -2.9299,4.0313 -0.96565,1.4384 -1.7957,2.9582 -2.51576,4.5322 -0.35871,0.8398 -0.75955,1.6601 -1.14276,2.4887 -1.63638,3.5233 3.34631,5.8375 4.9827,2.3142 l 0,0 c 0.39119,-0.8383 0.80615,-1.6653 1.17439,-2.5143 0.58672,-1.2895 1.28249,-2.5244 2.06923,-3.7029 0.86841,-1.2755 1.746593,-2.5431 2.698213,-3.7587 0.0903,-0.1208 0.84093,-1.0526 0.81353,-1.0862 -0.0469,-0.057 -0.18205,0.04 -0.21991,-0.035 -0.3535,-0.084 -0.22742,-0.1037 -0.11467,-0.079 0.35783,0.079 0.63497,0.3884 0.92253,0.5828 0.88045,0.7223 1.69584,1.5042 2.35945,2.4372 1.03379,1.3126 2.05867,2.6331 3.14887,3.8998 1.10282,1.319 2.22232,2.6236 3.35036,3.921 0.83911,1.012 1.64021,2.0619 2.58553,2.9794 0.48054,0.4626 0.96689,0.9276 1.52936,1.291 3.16063,2.1071 6.14051,-2.3627 2.97987,-4.4698 z"
       id="path4098"
       style="fill:#000000;fill-opacity:1;stroke:none" />
    <path
       inkscape:connector-curvature="0"
       d="m 120.94112,1505.935 c -0.5984,-0.325 -0.90488,-1.3415 -0.50198,-0.083 0.29945,0.9938 0.52225,2.008 0.76105,3.0176 0.45123,1.8261 1.11952,3.5863 1.77394,5.3463 0.69957,1.8306 1.42132,3.6529 2.16079,5.4677 0.60139,1.3629 1.17007,2.7987 2.18248,3.9218 0.25186,0.2794 0.54344,0.5203 0.81516,0.7804 1.35751,1.0956 2.96984,1.7525 4.60303,2.3125 0.93797,0.3154 1.91138,0.4993 2.85965,0.7775 3.7093,1.0884 5.24848,-4.1573 1.53918,-5.2457 l 0,0 c -0.86494,-0.2538 -1.74406,-0.4515 -2.60578,-0.7162 -0.94186,-0.3296 -1.87731,-0.6906 -2.7258,-1.2242 -0.87338,-0.5757 -1.07542,-1.7913 -1.52562,-2.6682 -0.70336,-1.7843 -1.39665,-3.5728 -2.09576,-5.3588 -0.58773,-1.5531 -1.1991,-3.1017 -1.63977,-4.7048 -0.29265,-1.1528 -0.57066,-2.3108 -0.95059,-3.4387 -0.35838,-1.0099 -0.71879,-2.0437 -1.6701,-2.6542 -3.16064,-2.1071 -6.14052,2.3627 -2.97988,4.4698 z"
       id="path4100"
       style="fill:#000000;fill-opacity:1;stroke:none" />
    <path
       inkscape:connector-curvature="0"
       d="m 119.36083,1469.7705 c 0.7413,0.475 1.27772,1.1014 1.80328,1.7963 1.25371,1.7307 2.01833,3.7321 2.80505,5.7006 0.90606,2.2867 1.71512,4.6081 2.50852,6.9355 0.22853,0.6772 0.47899,1.3465 0.72478,2.0175 1.20108,3.6754 6.39883,1.9768 5.19774,-1.6986 l 0,0 c -0.19981,-0.6857 -0.40719,-1.3691 -0.62624,-2.049 -0.77379,-2.4741 -1.60886,-4.9283 -2.57506,-7.335 -1.01849,-2.4574 -2.04943,-4.9413 -3.72388,-7.0405 -0.80143,-0.9601 -1.6453,-1.9107 -2.75107,-2.5307 -2.9726,-2.3781 -6.33572,1.8258 -3.36312,4.2039 z"
       id="path4102"
       style="fill:#000000;fill-opacity:1;stroke:none" />
    <path
       inkscape:connector-curvature="0"
       d="m 116.9542,1465.2611 c -0.4186,-0.018 -0.83766,-0.018 -1.25648,-0.028 -1.02783,-0.011 -2.05399,-0.015 -3.07889,-0.099 -1.23054,-0.1239 -2.42916,-0.4444 -3.6193,-0.7678 -1.22575,-0.3936 -2.46299,-0.7462 -3.71577,-1.0422 -1.49605,-0.3328 -3.0055,-0.2998 -4.50378,-0.027 -3.799393,0.7364 -2.757933,6.1096 1.04145,5.3731 l 0,0 c 0.72974,-0.1613 1.4674,-0.1611 2.20359,-0.016 1.19145,0.2812 2.35724,0.6538 3.52487,1.0196 1.53544,0.4212 3.08634,0.8141 4.67818,0.9458 1.15625,0.073 2.31167,0.071 3.46965,0.039 0.41882,-0.01 0.83788,-0.01 1.25648,-0.028 3.79685,0 3.79685,-5.3696 0,-5.3696 z"
       id="path4104"
       style="fill:#000000;fill-opacity:1;stroke:none" />
    <path
       style="opacity:1;fill:#000000;fill-opacity:1;stroke:none"
       id="path4110"
       d="m 476.30735,719.33786 c -0.59018,-0.27423 -1.26901,-0.41236 -1.90715,-0.55734 -2.87121,-0.55107 -5.80142,-0.65237 -8.71672,-0.62566 -3.4314,0.16759 -6.9218,0.34081 -10.26162,1.21795 -0.58932,0.15477 -1.16493,0.35768 -1.7474,0.53653 -2.37391,0.80865 -4.52067,2.11534 -6.13177,4.05783 -0.28521,0.34388 -0.53231,0.71766 -0.79846,1.07649 -1.25514,1.85634 -1.95536,4.01504 -2.01855,6.25805 -0.0142,0.50341 0.0219,1.00698 0.0329,1.51047 0.22456,3.12964 1.14228,6.16426 2.5422,8.96697 0.30936,0.61936 0.67289,1.21016 1.00933,1.81524 1.95728,3.09125 4.63768,5.59298 7.65805,7.62868 0.60701,0.40913 1.24031,0.77784 1.86046,1.16676 3.7344,2.24109 7.87764,3.54883 12.07719,4.58539 3.60269,0.65991 7.29004,0.92082 10.9373,0.49081 0.69751,-0.0822 1.38792,-0.21633 2.08188,-0.3245 2.58968,-0.52353 5.1586,-1.26415 7.50619,-2.50123 1.45089,-0.76455 1.83657,-1.11362 3.17266,-2.07512 2.14659,-1.6789 4.06012,-3.65109 5.65782,-5.8603 1.00595,-1.39099 1.21585,-1.84469 2.06729,-3.32532 1.13,-2.21738 2.1714,-4.50385 2.76118,-6.93156 0.34791,-1.43209 0.36821,-1.90313 0.55606,-3.35863 0.18939,-2.44179 0.1694,-4.99458 -0.57835,-7.3553 -0.1103,-0.34822 -0.26625,-0.68028 -0.39938,-1.02042 -1.12037,-2.28478 -2.76216,-3.38848 -4.96636,-4.50412 -2.51573,-1.11112 -5.0548,-2.02627 -7.78916,-2.37528 -1.14567,-0.14487 -2.27058,0.0214 -3.40027,0.18933 -3.95951,0.53764 -4.71984,-5.06195 -0.76034,-5.59958 l 0,0 c 1.62792,-0.20636 3.25478,-0.40118 4.89675,-0.18156 0.52416,0.0705 1.05135,0.12131 1.57248,0.21155 2.82993,0.49004 5.53283,1.55265 8.14218,2.71938 0.56476,0.30741 1.14658,0.58537 1.69429,0.92224 2.58298,1.58867 4.6379,3.84297 5.89284,6.60843 0.20385,0.54562 0.4379,1.08089 0.61154,1.63686 0.95531,3.05877 1.06422,6.33024 0.78571,9.49776 -0.24233,1.81792 -0.26995,2.40237 -0.71376,4.19597 -0.71345,2.88331 -1.91905,5.61519 -3.28074,8.24482 -1.03199,1.78281 -1.28723,2.32984 -2.50695,4.00635 -1.93955,2.66591 -4.26096,5.03646 -6.8907,7.02482 -0.66846,0.46529 -1.31726,0.96019 -2.00539,1.39588 -3.38884,2.14562 -7.21776,3.43989 -11.13638,4.20558 -0.83686,0.12772 -1.66951,0.28686 -2.51056,0.38316 -4.27571,0.48957 -8.60301,0.17962 -12.81516,-0.65129 -4.78998,-1.21142 -9.51179,-2.7367 -13.77405,-5.29856 -0.7299,-0.45949 -1.47603,-0.89417 -2.18972,-1.37847 -3.73249,-2.53286 -6.98765,-5.70102 -9.33948,-9.56983 -0.41064,-0.761 -0.85523,-1.50463 -1.23191,-2.283 -1.70709,-3.52752 -2.73504,-7.36235 -2.9273,-11.27737 0.006,-0.70425 -0.0249,-1.40974 0.0174,-2.11274 0.19759,-3.28316 1.29104,-6.42347 3.16205,-9.1244 0.39574,-0.51344 0.76498,-1.04844 1.18722,-1.54032 2.29087,-2.66867 5.28064,-4.53325 8.58814,-5.68034 0.73022,-0.22316 1.45204,-0.47594 2.19067,-0.66947 3.75276,-0.98323 7.66384,-1.22742 11.52424,-1.34399 3.39659,0.0406 6.81003,0.24313 10.12027,1.06376 1.19549,0.34682 2.44872,0.69921 3.47122,1.43882 3.16063,2.1071 0.18076,6.57691 -2.97988,4.46982 z"
       inkscape:connector-curvature="0"
       transform="translate(0,572.36217)" />
    <path
       style="fill:#000000;fill-opacity:1;stroke:none"
       id="path4112"
       d="m 461.85384,724.18075 c -0.008,-0.0243 -0.043,-0.0904 -0.0242,-0.073 0.5252,0.48473 0.97985,1.07586 1.45956,1.60259 0.58292,0.64008 1.17152,1.27497 1.75633,1.91333 2.01842,2.23318 4.07415,4.42911 6.18846,6.57159 0.87621,0.88958 1.72944,1.80119 2.59303,2.70293 2.75527,2.84191 -1.26379,6.73845 -4.01906,3.89654 l 0,0 c -0.85504,-0.8714 -1.70014,-1.75267 -2.57284,-2.60655 -2.21634,-2.19469 -4.36631,-4.45451 -6.41521,-6.80729 -1.1221,-1.29881 -2.20325,-2.62858 -3.26834,-3.97343 -2.28162,-3.04215 2.02064,-6.26884 4.30225,-3.22669 z"
       inkscape:connector-curvature="0"
       transform="translate(0,572.36217)" />
    <path
       style="fill:#000000;fill-opacity:1;stroke:none"
       id="path4114"
       d="m 457.67237,742.083 c -0.12912,-1.22205 0.4347,-2.27325 1.07082,-3.26617 1.51801,-1.93821 3.62296,-3.24747 5.71302,-4.48428 2.15742,-1.19448 4.3127,-2.39096 6.45268,-3.61686 0.33575,-0.17367 0.67149,-0.34734 1.00724,-0.52101 3.49015,-1.81612 6.05852,3.11971 2.56837,4.93582 l 0,0 c -0.25472,0.13358 -0.50944,0.26716 -0.76415,0.40073 -2.12435,1.26406 -4.26592,2.49524 -6.43831,3.67521 -1.42206,0.80417 -2.85867,1.62227 -4.05544,2.74969 -0.0473,0.0454 -0.0767,0.12962 -0.14188,0.13616 -0.0535,0.005 0.0155,-0.0949 -0.0113,-0.33743 -0.0121,-0.10922 -0.0418,0.43753 -0.0315,0.32814 0,3.79685 -5.36955,3.79685 -5.36955,0 z"
       inkscape:connector-curvature="0"
       transform="translate(0,572.36217)" />
    <path
       style="fill:#000000;fill-opacity:1;stroke:none"
       id="path4116"
       d="m 487.18009,729.10083 c -0.065,-0.14481 -0.12995,-0.28962 -0.19493,-0.43442 -0.006,-0.0254 -0.0409,-0.0897 -0.0186,-0.0761 0.21261,0.12974 0.38119,0.32146 0.58347,0.46678 0.30503,0.21915 0.61816,0.42679 0.92633,0.64151 1.43264,0.99377 2.77993,2.10211 4.10709,3.23076 1.30035,1.07128 2.53514,2.21838 3.77022,3.3633 0.59985,0.51055 1.11473,1.09991 1.61713,1.70279 2.48755,2.96734 -1.7089,6.48527 -4.19645,3.51793 l 0,0 c -0.35852,-0.42215 -0.75423,-0.80678 -1.16997,-1.17333 -1.17846,-1.09087 -2.37253,-2.16613 -3.60991,-3.19011 -1.20583,-1.02529 -2.41964,-2.0441 -3.70481,-2.96976 -1.19453,-0.8654 -2.43109,-1.72348 -3.10419,-3.08146 -1.4127,-3.53175 3.58196,-5.52962 4.99466,-1.99786 z"
       inkscape:connector-curvature="0"
       transform="translate(0,572.36217)" />
    <path
       style="fill:#000000;fill-opacity:1;stroke:none"
       id="path4118"
       d="m 476.32361,739.21759 c 0.69872,-0.56083 1.45815,-1.03515 2.19564,-1.54143 1.15582,-0.82594 2.2876,-1.68489 3.42338,-2.538 1.32683,-1.01466 2.59995,-2.0961 3.91411,-3.12694 0.75112,-0.59284 1.53442,-1.14045 2.32588,-1.6772 3.22528,-2.21626 6.35955,2.34497 3.13427,4.56124 l 0,0 c -0.69256,0.48342 -1.38118,0.97243 -2.04823,1.49093 -1.34679,1.04374 -2.65958,2.12976 -4.01215,3.16598 -1.222,0.91702 -2.44622,1.83304 -3.70772,2.69528 -0.664,0.42728 -1.33487,0.84665 -1.99849,1.27239 -3.04216,2.28162 -6.26885,-2.02064 -3.22669,-4.30225 z"
       inkscape:connector-curvature="0"
       transform="translate(0,572.36217)" />
    <path
       style="fill:#000000;fill-opacity:1;stroke:none"
       id="path4120"
       d="m 464.69444,749.37827 c 0.52359,-0.76924 1.28623,-1.32502 1.99911,-1.90607 1.49411,-1.30502 3.00356,-1.48627 4.88776,-1.13431 1.08545,0.27333 1.99561,0.9541 3.03821,1.32867 0.42378,-0.0701 0.86384,-0.22019 1.29217,-0.33088 1.54099,-0.46569 2.76419,-0.51194 4.34603,-0.1826 1.08299,0.31298 2.06556,0.86931 3.13755,1.2123 0.71412,0.25491 1.35717,0.0534 2.04036,-0.18914 1.03217,-0.47576 1.89688,-1.22119 2.87803,-1.79327 1.37922,-0.75705 2.88577,-0.86998 4.42098,-0.81614 0.6635,0.0351 0.33723,0.0168 0.97883,0.0549 3.84914,0.2226 3.53434,5.6661 -0.3148,5.4435 l 0,0 c -0.58954,-0.0331 -0.29765,-0.0172 -0.87569,-0.0478 -0.49559,-0.0219 -0.99889,-0.0894 -1.46632,0.11641 -1.3227,0.74937 -2.44248,1.85426 -3.94475,2.27875 -1.79663,0.54679 -3.62135,0.79335 -5.43706,0.14384 -0.91965,-0.31139 -1.80939,-0.6868 -2.6924,-1.08898 -0.55101,-0.25371 -1.14006,0.0406 -1.69552,0.1535 -1.54099,0.40331 -3.09406,0.70771 -4.64532,0.13185 -0.29197,-0.11763 -2.11393,-0.84023 -2.21984,-1.0847 -0.0346,-0.0159 -0.0882,-0.013 -0.10384,-0.0477 -0.005,-0.0104 0.87547,-0.79441 -0.19831,0.0951 -0.41848,0.33477 -0.82164,0.60584 -1.12292,0.88944 -2.28162,3.04215 -6.58387,-0.18454 -4.30226,-3.2267 z"
       inkscape:connector-curvature="0"
       transform="translate(0,572.36217)" />
  </g>
</svg>
